<?xml version="1.0" encoding="UTF-8"?>
<!DOCTYPE svg PUBLIC "-//W3C//DTD SVG 1.1//EN" "http://www.w3.org/Graphics/SVG/1.1/DTD/svg11.dtd">
<svg xmlns="http://www.w3.org/2000/svg" version="1.1" width="500px" height="500px" style="shape-rendering:geometricPrecision; text-rendering:geometricPrecision; image-rendering:optimizeQuality; fill-rule:evenodd; clip-rule:evenodd" xmlns:xlink="http://www.w3.org/1999/xlink">
<g><path style="opacity:1" fill="#6509e0" d="M 245.5,92.5 C 261.905,89.9445 273.071,96.2779 279,111.5C 281.761,136.407 270.594,147.907 245.5,146C 230.305,140.455 223.805,129.622 226,113.5C 228.923,103.08 235.423,96.0805 245.5,92.5 Z"/></g>
<g><path style="opacity:1" fill="#601bc5" d="M 214.5,155.5 C 206.174,154.294 197.84,154.294 189.5,155.5C 188.167,156.167 186.833,156.833 185.5,157.5C 185.709,158.086 186.043,158.586 186.5,159C 183.482,158.337 180.482,158.504 177.5,159.5C 186.468,153.262 196.468,151.096 207.5,153C 210.104,153.39 212.438,154.224 214.5,155.5 Z"/></g>
<g><path style="opacity:1" fill="#640ae1" d="M 214.5,155.5 C 218.423,156.795 222.09,158.628 225.5,161C 233.091,167.765 241.091,173.931 249.5,179.5C 249.586,180.496 249.252,181.329 248.5,182C 239.735,188.037 231.402,194.537 223.5,201.5C 220.455,202.394 218.788,204.394 218.5,207.5C 203.815,196.476 189.148,185.476 174.5,174.5C 174.5,173.833 174.167,173.5 173.5,173.5C 173.5,172.833 173.167,172.5 172.5,172.5C 172.5,171.833 172.167,171.5 171.5,171.5C 170.5,170.167 169.5,168.833 168.5,167.5C 170.9,164.097 173.9,161.43 177.5,159.5C 180.482,158.504 183.482,158.337 186.5,159C 186.043,158.586 185.709,158.086 185.5,157.5C 186.833,156.833 188.167,156.167 189.5,155.5C 197.84,154.294 206.174,154.294 214.5,155.5 Z"/></g>
<g><path style="opacity:1" fill="#1dd6c8" d="M 330.5,167.5 C 329.197,169.142 327.864,170.809 326.5,172.5C 325.833,172.5 325.5,172.833 325.5,173.5C 309.376,185.785 293.376,198.285 277.5,211C 264.877,220.858 250.877,223.525 235.5,219C 232.102,217.643 229.102,215.81 226.5,213.5C 222.68,210.219 221.68,206.219 223.5,201.5C 231.402,194.537 239.735,188.037 248.5,182C 249.252,181.329 249.586,180.496 249.5,179.5C 258.605,172.907 267.605,166.074 276.5,159C 292.378,150.104 308.044,150.437 323.5,160C 326.039,162.37 328.372,164.87 330.5,167.5 Z"/></g>
<g><path style="opacity:0.835" fill="#3f8cdc" d="M 168.5,167.5 C 169.5,168.833 170.5,170.167 171.5,171.5C 169.871,171.628 168.538,170.628 167.5,168.5C 167.5,167.833 167.833,167.5 168.5,167.5 Z"/></g>
<g><path style="opacity:1" fill="#1dd6c9" d="M 167.5,168.5 C 168.538,170.628 169.871,171.628 171.5,171.5C 172.167,171.5 172.5,171.833 172.5,172.5C 173.167,172.5 173.5,172.833 173.5,173.5C 174.167,173.5 174.5,173.833 174.5,174.5C 186.711,191.557 199.544,208.224 213,224.5C 225.708,244.679 223.875,263.346 207.5,280.5C 206.432,279.566 205.099,279.232 203.5,279.5C 196.579,268.585 188.579,258.585 179.5,249.5C 172.549,240.043 165.382,230.709 158,221.5C 150.142,205.765 150.808,190.431 160,175.5C 162.37,172.961 164.87,170.628 167.5,168.5 Z"/></g>
<g><path style="opacity:1" fill="#640be0" d="M 330.5,167.5 C 343.822,177.952 348.989,191.619 346,208.5C 345.121,213.136 343.455,217.469 341,221.5C 333.969,230.687 326.803,239.687 319.5,248.5C 317.983,248.489 316.816,247.823 316,246.5C 308.603,236.308 300.769,226.641 292.5,217.5C 303.524,202.815 314.524,188.148 325.5,173.5C 326.167,173.5 326.5,173.167 326.5,172.5C 327.864,170.809 329.197,169.142 330.5,167.5 Z"/></g>
<g><path style="opacity:1" fill="#33b2c8" d="M 223.5,201.5 C 221.68,206.219 222.68,210.219 226.5,213.5C 223.545,211.878 220.878,209.878 218.5,207.5C 218.788,204.394 220.455,202.394 223.5,201.5 Z"/></g>
<g><path style="opacity:1" fill="#6509e1" d="M 145.5,245.5 C 145.5,250.5 145.5,255.5 145.5,260.5C 141.289,272.687 132.622,279.353 119.5,280.5C 97.8251,276.843 89.3251,264.176 94,242.5C 103.064,226.27 116.231,221.77 133.5,229C 139.834,232.848 143.834,238.348 145.5,245.5 Z"/></g>
<g><path style="opacity:1" fill="#6508e1" d="M 401.5,237.5 C 404.364,245.282 405.03,253.282 403.5,261.5C 402.132,264.89 400.799,268.224 399.5,271.5C 384.545,283.906 370.378,282.906 357,268.5C 350.787,257.276 351.121,246.276 358,235.5C 369.678,224.082 382.511,222.582 396.5,231C 398.79,232.777 400.457,234.944 401.5,237.5 Z"/></g>
<g><path style="opacity:1" fill="#1ed5c9" d="M 292.5,217.5 C 300.769,226.641 308.603,236.308 316,246.5C 316.816,247.823 317.983,248.489 319.5,248.5C 326.161,258.464 333.327,268.131 341,277.5C 349.527,292.634 349.194,307.634 340,322.5C 337.953,326.048 335.12,328.715 331.5,330.5C 330.598,328.659 329.264,327.326 327.5,326.5C 327.167,326.5 326.833,326.5 326.5,326.5C 326.5,325.833 326.167,325.5 325.5,325.5C 325.5,324.833 325.167,324.5 324.5,324.5C 312.289,307.443 299.456,290.776 286,274.5C 273.697,253.798 275.863,234.798 292.5,217.5 Z"/></g>
<g><path style="opacity:1" fill="#5d27a9" d="M 145.5,245.5 C 146.21,247.893 146.877,250.393 147.5,253C 146.877,255.607 146.21,258.107 145.5,260.5C 145.5,255.5 145.5,250.5 145.5,245.5 Z"/></g>
<g><path style="opacity:1" fill="#5c19be" d="M 401.5,237.5 C 405.437,241.814 407.104,246.981 406.5,253C 407,260.344 404.667,266.511 399.5,271.5C 400.799,268.224 402.132,264.89 403.5,261.5C 405.03,253.282 404.364,245.282 401.5,237.5 Z"/></g>
<g><path style="opacity:1" fill="#640be1" d="M 179.5,249.5 C 188.579,258.585 196.579,268.585 203.5,279.5C 203.414,280.496 203.748,281.329 204.5,282C 203.584,282.374 202.75,282.874 202,283.5C 201.727,285.101 201.227,286.601 200.5,288C 199.551,288.617 198.718,288.451 198,287.5C 197.383,288.449 197.549,289.282 198.5,290C 195.359,292.448 193.359,295.615 192.5,299.5C 188.197,299.735 186.53,302.069 187.5,306.5C 183.142,312.518 178.809,318.518 174.5,324.5C 173.833,324.5 173.5,324.833 173.5,325.5C 172.833,325.5 172.5,325.833 172.5,326.5C 171.833,326.5 171.5,326.833 171.5,327.5C 170.363,328.789 169.03,329.789 167.5,330.5C 155.09,320.449 150.257,307.449 153,291.5C 154.163,286.172 156.163,281.172 159,276.5C 166.049,267.623 172.883,258.623 179.5,249.5 Z"/></g>
<g><path style="opacity:1" fill="#1bd7c9" d="M 247.5,320.5 C 239.02,327.47 230.353,334.303 221.5,341C 206.364,349.478 191.364,349.144 176.5,340C 172.62,337.621 169.62,334.454 167.5,330.5C 169.03,329.789 170.363,328.789 171.5,327.5C 172.167,327.5 172.5,327.167 172.5,326.5C 173.167,326.5 173.5,326.167 173.5,325.5C 174.167,325.5 174.5,325.167 174.5,324.5C 188.5,314.167 202.5,303.833 216.5,293.5C 220.919,291.443 224.919,288.776 228.5,285.5C 230.709,286.106 232.876,286.773 235,287.5C 236.922,283.205 240.089,281.039 244.5,281C 242.834,284.131 243.834,285.631 247.5,285.5C 249.593,285.514 251.426,284.848 253,283.5C 254.073,284.28 255.24,284.113 256.5,283C 255.289,282.107 255.289,281.274 256.5,280.5C 257.452,282.045 257.785,283.712 257.5,285.5C 256.325,285.281 255.325,285.614 254.5,286.5C 255.093,288.382 255.76,290.215 256.5,292C 259.226,292.182 261.893,292.682 264.5,293.5C 263.975,294.192 263.308,294.692 262.5,295C 265.371,295.118 268.038,295.784 270.5,297C 267.36,298 266.027,300.167 266.5,303.5C 264.076,303.192 261.743,303.526 259.5,304.5C 260.645,305.891 260.645,307.224 259.5,308.5C 256.521,307.644 255.188,308.977 255.5,312.5C 254.167,312.5 252.833,312.5 251.5,312.5C 251.5,313.5 251.5,314.5 251.5,315.5C 249.425,315.302 247.425,315.135 245.5,315C 246.5,315.833 247.5,316.667 248.5,317.5C 247.873,318.417 247.539,319.417 247.5,320.5 Z"/></g>
<g><path style="opacity:1" fill="#24d0ca" d="M 277.5,289.5 C 278.252,291.1 279.252,292.6 280.5,294C 279.944,294.383 279.611,294.883 279.5,295.5C 269.056,303.041 259.056,311.041 249.5,319.5C 248.833,319.833 248.167,320.167 247.5,320.5C 247.539,319.417 247.873,318.417 248.5,317.5C 247.5,316.667 246.5,315.833 245.5,315C 247.425,315.135 249.425,315.302 251.5,315.5C 251.5,314.5 251.5,313.5 251.5,312.5C 252.833,312.5 254.167,312.5 255.5,312.5C 255.188,308.977 256.521,307.644 259.5,308.5C 260.645,307.224 260.645,305.891 259.5,304.5C 261.743,303.526 264.076,303.192 266.5,303.5C 266.027,300.167 267.36,298 270.5,297C 268.038,295.784 265.371,295.118 262.5,295C 263.308,294.692 263.975,294.192 264.5,293.5C 261.893,292.682 259.226,292.182 256.5,292C 255.76,290.215 255.093,288.382 254.5,286.5C 255.325,285.614 256.325,285.281 257.5,285.5C 257.785,283.712 257.452,282.045 256.5,280.5C 255.289,281.274 255.289,282.107 256.5,283C 255.24,284.113 254.073,284.28 253,283.5C 251.426,284.848 249.593,285.514 247.5,285.5C 243.834,285.631 242.834,284.131 244.5,281C 240.089,281.039 236.922,283.205 235,287.5C 232.876,286.773 230.709,286.106 228.5,285.5C 224.919,288.776 220.919,291.443 216.5,293.5C 230.177,278.831 246.511,274.664 265.5,281C 270.094,283.118 274.094,285.952 277.5,289.5 Z"/></g>
<g><path style="opacity:1" fill="#5d1ec5" d="M 203.5,279.5 C 205.099,279.232 206.432,279.566 207.5,280.5C 201.209,289.457 194.543,298.124 187.5,306.5C 186.53,302.069 188.197,299.735 192.5,299.5C 193.359,295.615 195.359,292.448 198.5,290C 197.549,289.282 197.383,288.449 198,287.5C 198.718,288.451 199.551,288.617 200.5,288C 201.227,286.601 201.727,285.101 202,283.5C 202.75,282.874 203.584,282.374 204.5,282C 203.748,281.329 203.414,280.496 203.5,279.5 Z"/></g>
<g><path style="opacity:1" fill="#413ebc" d="M 277.5,289.5 C 280.455,291.122 283.122,293.122 285.5,295.5C 283.5,294.167 281.5,294.167 279.5,295.5C 279.611,294.883 279.944,294.383 280.5,294C 279.252,292.6 278.252,291.1 277.5,289.5 Z"/></g>
<g><path style="opacity:1" fill="#640ae1" d="M 285.5,295.5 C 298.351,305.419 311.351,315.086 324.5,324.5C 325.167,324.5 325.5,324.833 325.5,325.5C 326.167,325.5 326.5,325.833 326.5,326.5C 326.5,327.167 326.833,327.5 327.5,327.5C 327.5,328.167 327.833,328.5 328.5,328.5C 329.167,329.5 329.833,330.5 330.5,331.5C 320.178,344.112 306.845,348.945 290.5,346C 286.615,345.261 282.948,343.927 279.5,342C 269.34,334.668 259.34,327.168 249.5,319.5C 259.056,311.041 269.056,303.041 279.5,295.5C 281.5,294.167 283.5,294.167 285.5,295.5 Z"/></g>
<g><path style="opacity:0.827" fill="#4299dd" d="M 327.5,327.5 C 327.5,327.167 327.5,326.833 327.5,326.5C 329.264,327.326 330.598,328.659 331.5,330.5C 331.5,331.167 331.167,331.5 330.5,331.5C 329.833,330.5 329.167,329.5 328.5,328.5C 327.833,328.5 327.5,328.167 327.5,327.5 Z"/></g>
<g><path style="opacity:1" fill="#6508e1" d="M 270.5,367.5 C 271.372,371.454 272.038,375.454 272.5,379.5C 272.086,385.158 270.752,390.491 268.5,395.5C 260.912,405.444 250.912,408.944 238.5,406C 221.494,398.817 215.661,386.317 221,368.5C 229.668,353.499 242.168,348.999 258.5,355C 264.073,357.738 268.073,361.905 270.5,367.5 Z"/></g>
<g><path style="opacity:1" fill="#6021bc" d="M 270.5,367.5 C 273.859,374.5 274.359,381.833 272,389.5C 271.059,391.727 269.892,393.727 268.5,395.5C 270.752,390.491 272.086,385.158 272.5,379.5C 272.038,375.454 271.372,371.454 270.5,367.5 Z"/></g>
</svg>
